HIERARCHY
ROOT Hips
{
	OFFSET 0.000000 0.000000 0.000000
	CHANNELS 6 Xposition Yposition Zposition Zrotation Yrotation Xrotation 
	JOINT LeftUpLeg_virtual
	{
		OFFSET 0.000000 0.000000 0.000000
		CHANNELS 3 Zrotation Yrotation Xrotation
		JOINT LeftUpLeg
		{
			OFFSET 10.205400 -3.823500 0.155100
			CHANNELS 3 Zrotation Yrotation Xrotation
			JOINT LeftLeg
			{
				OFFSET 0.708757 -12.982077 0.567790
				CHANNELS 3 Zrotation Yrotation Xrotation
				JOINT LeftFoot
				{
					OFFSET -0.708756 -10.717838 -2.184338
					CHANNELS 3 Zrotation Yrotation Xrotation
					JOINT LeftToeBase
					{
						OFFSET 0.108149 -7.191104 7.560241
						CHANNELS 3 Zrotation Yrotation Xrotation
						End Site
						{
							OFFSET 0.000000 0.000000 0.000000
						}
					}
				}
			}
		}
	}
	JOINT RightUpLeg_virtual
	{
		OFFSET 0.000000 0.000000 0.000000
		CHANNELS 3 Zrotation Yrotation Xrotation
		JOINT RightUpLeg
		{
			OFFSET -10.205400 -3.823500 0.005500
			CHANNELS 3 Zrotation Yrotation Xrotation
			JOINT RightLeg
			{
				OFFSET -0.708756 -12.982134 0.610632
				CHANNELS 3 Zrotation Yrotation Xrotation
				JOINT RightFoot
				{
					OFFSET 0.708754 -10.717769 -1.945823
					CHANNELS 3 Zrotation Yrotation Xrotation
					JOINT RightToeBase
					{
						OFFSET -0.108140 -7.191069 7.372968
						CHANNELS 3 Zrotation Yrotation Xrotation
						End Site
						{
							OFFSET 0.000000 0.000000 0.000000
						}
					}
				}
			}
		}
	}
	JOINT Spine_virtual
	{
		OFFSET 0.000000 0.000000 0.000000
		CHANNELS 3 Zrotation Yrotation Xrotation
		JOINT Spine
		{
			OFFSET 0.000000 6.876099 0.125700
			CHANNELS 3 Zrotation Yrotation Xrotation
			JOINT Spine1
			{
				OFFSET 0.000000 8.022060 0.146608
				CHANNELS 3 Zrotation Yrotation Xrotation
				JOINT Spine2
				{
					OFFSET 0.000000 9.168068 0.167552
					CHANNELS 3 Zrotation Yrotation Xrotation
					JOINT Neck_virtual
					{
						OFFSET 0.000000 0.000000 0.000000
						CHANNELS 3 Zrotation Yrotation Xrotation
						JOINT Neck
						{
							OFFSET 0.000000 10.314075 0.188496
							CHANNELS 3 Zrotation Yrotation Xrotation
							JOINT Head
							{
								OFFSET 0.000000 7.643700 -2.377400
								CHANNELS 3 Zrotation Yrotation Xrotation
								End Site
								{
									OFFSET 0.000000 0.000000 0.000000
								}
							}
						}
					}
					JOINT LeftShoulder_virtual
					{
						OFFSET 0.000000 0.000000 0.000000
						CHANNELS 3 Zrotation Yrotation Xrotation
						JOINT LeftShoulder
						{
							OFFSET 4.392200 8.824978 0.174984
							CHANNELS 3 Zrotation Yrotation Xrotation
							JOINT LeftArm
							{
								OFFSET 8.771219 -2.981674 -0.026999
								CHANNELS 3 Zrotation Yrotation Xrotation
								JOINT LeftForeArm
								{
									OFFSET 8.512804 0.000000 -0.000000
									CHANNELS 3 Zrotation Yrotation Xrotation
									JOINT LeftHand
									{
										OFFSET 18.484802 0.000000 -0.000000
										CHANNELS 3 Zrotation Yrotation Xrotation
										End Site
										{
											OFFSET 0.000000 0.000000 0.000000
										}
									}
								}
							}
						}
					}
					JOINT RightShoulder_virtual
					{
						OFFSET 0.000000 0.000000 0.000000
						CHANNELS 3 Zrotation Yrotation Xrotation
						JOINT RightShoulder
						{
							OFFSET -4.392200 8.824993 0.141379
							CHANNELS 3 Zrotation Yrotation Xrotation
							JOINT RightArm
							{
								OFFSET -8.771282 -2.981682 -0.094208
								CHANNELS 3 Zrotation Yrotation Xrotation
								JOINT RightForeArm
								{
									OFFSET -8.494598 0.000000 0.000000
									CHANNELS 3 Zrotation Yrotation Xrotation
									JOINT RightHand
									{
										OFFSET -18.483803 0.000000 0.000001
										CHANNELS 3 Zrotation Yrotation Xrotation
										End Site
										{
											OFFSET 0.000000 0.000000 0.000000
										}
									}
								}
							}
						}
					}
				}
			}
		}
	}
}
MOTION
Frames: 10
Frame Time: 0.033333
-15.830867 35.126850 105.817474 179.465502 12.718818 -178.802359 -2.838723 -5.452462 13.776613 -10.971924 -2.254845 -29.186218 20.767448 8.414598 26.135297 -7.216987 0.539421 9.516548 0.000000 0.000000 0.000000 3.957918 -4.600767 10.789403 1.081648 9.368206 -27.762772 -6.620815 6.748550 21.936826 -0.166235 4.746456 8.352280 0.000000 0.000000 0.000000 1.934717 -1.719540 -0.289304 -0.526305 1.919851 -11.446057 -0.208606 -2.398391 9.917794 0.017744 -0.026816 0.190710 -0.456431 -0.262705 14.022452 2.825404 -1.331278 17.961716 0.000000 0.000000 0.000000 0.863376 0.596222 10.624447 -17.085783 -8.732421 0.275877 -55.647061 14.290867 8.849211 -3.083795 -16.482575 6.802694 0.000000 0.000000 0.000000 -2.788808 1.983071 10.403905 26.854036 3.618811 2.746190 42.693330 -17.715026 1.314249 -6.484466 28.577979 -4.795680 0.000000 0.000000 0.000000 
-15.850365 35.139572 105.790306 179.203728 13.016240 -178.343589 -2.991815 -4.553323 14.081506 -11.404439 -1.900568 -28.341626 21.138034 8.732222 26.559679 -6.744417 0.862525 10.023819 0.000000 0.000000 0.000000 3.588763 -4.842526 11.126058 0.763623 8.795393 -27.007473 -6.944164 7.569669 22.302775 -0.401535 4.610292 9.106715 0.000000 0.000000 0.000000 1.849415 -1.624484 -0.723362 -0.586397 1.828492 -11.650852 -0.213022 -2.346131 9.823051 0.059736 0.022624 0.341982 -0.506722 -0.230650 14.178928 2.821986 -1.372029 17.993683 0.000000 0.000000 0.000000 1.040483 0.597955 10.836772 -17.019957 -8.876934 0.162041 -55.688240 14.280976 8.781816 -3.269260 -16.646498 7.026652 0.000000 0.000000 0.000000 -2.760778 1.925481 10.641317 26.929349 3.350463 2.629248 43.072064 -18.677192 1.524092 -6.481162 28.511773 -4.832011 0.000000 0.000000 0.000000 
-15.874522 35.147793 105.762917 178.945451 13.335598 -178.349476 -3.226482 -4.202170 13.780277 -11.403501 -1.967645 -27.972635 20.989909 8.925994 26.531115 -6.510498 0.760517 9.918422 0.000000 0.000000 0.000000 3.436606 -4.451708 10.813281 0.733965 8.823630 -26.727080 -6.982800 7.651770 22.392046 -0.403365 4.603352 9.211992 0.000000 0.000000 0.000000 1.711090 -1.239005 -0.884634 -0.708528 1.658804 -11.598454 -0.209693 -2.434350 9.819042 0.132147 0.004974 0.593950 -0.397701 -0.379096 14.049810 2.907852 -1.426865 17.878618 0.000000 0.000000 0.000000 1.010163 0.509542 10.684975 -17.337286 -9.008224 0.082234 -55.542132 14.198381 8.715234 -2.945124 -16.697425 6.768081 0.000000 0.000000 0.000000 -2.816229 1.845322 10.439931 26.800221 3.009488 2.384522 43.622403 -20.144830 2.501913 -6.110703 28.440633 -4.573792 0.000000 0.000000 0.000000 
-15.900841 35.138859 105.766525 179.232879 13.636592 -178.278483 -2.869214 -3.945276 13.538639 -11.492197 -2.114056 -27.678305 20.892855 9.069051 26.585528 -6.067172 0.713065 9.783053 0.000000 0.000000 0.000000 3.623973 -4.145989 10.518922 0.738946 8.878520 -26.482110 -6.943511 7.562152 22.518738 -0.440966 4.512882 9.320521 0.000000 0.000000 0.000000 1.952521 -1.072220 -1.111083 -0.670756 1.559531 -11.268132 -0.109491 -2.477918 9.996289 0.107973 0.012866 0.201026 -0.425558 -0.278356 14.154395 3.042881 -1.497772 18.046290 0.000000 0.000000 0.000000 1.089280 0.454541 10.605601 -17.347921 -9.012677 0.043372 -55.457998 14.360348 9.063779 -3.315261 -17.121543 7.147674 0.000000 0.000000 0.000000 -2.651551 1.831389 10.442201 26.725325 2.639306 2.076222 43.980964 -21.595159 3.598885 -6.192439 28.196343 -4.746928 0.000000 0.000000 0.000000 
-15.905186 35.117531 105.786354 179.171148 14.035988 -178.280997 -2.819844 -3.725415 13.422721 -11.529028 -2.361621 -27.578094 20.773778 9.180690 26.687156 -5.506670 0.675232 9.629751 0.000000 0.000000 0.000000 3.630395 -3.883757 10.300386 0.638337 8.831427 -26.419904 -6.835883 7.493795 22.695079 -0.396703 4.461281 9.300857 0.000000 0.000000 0.000000 1.942007 -0.942412 -1.087661 -0.802829 1.469606 -10.929433 -0.056036 -2.476846 9.844010 0.066188 0.001374 0.276377 -0.279044 -0.385804 13.997913 3.198195 -1.602430 17.982925 0.000000 0.000000 0.000000 1.190414 0.416580 10.372854 -17.498747 -9.127094 -0.079049 -55.163756 14.573163 9.703599 -3.406772 -17.721469 7.292338 0.000000 0.000000 0.000000 -2.496354 1.768668 10.226628 26.343818 2.363625 1.675391 44.248902 -22.522373 4.669159 -5.897178 27.973052 -4.568326 0.000000 0.000000 0.000000 
-15.907176 35.092999 105.832092 179.304036 14.376365 -178.273702 -2.602402 -3.611140 13.438867 -11.432677 -2.748732 -27.680894 20.565966 9.273058 26.870243 -4.905009 0.636330 9.543575 0.000000 0.000000 0.000000 3.861310 -3.715570 10.177378 0.470449 8.837450 -26.494078 -6.702906 7.417591 22.948310 -0.326144 4.442938 9.198264 0.000000 0.000000 0.000000 2.012923 -0.887283 -0.853000 -0.823808 1.428491 -10.474675 0.048856 -2.460725 9.562475 0.085118 0.002366 0.459161 -0.239379 -0.525846 13.713354 3.419233 -1.709443 17.609373 0.000000 0.000000 0.000000 1.241440 0.407179 10.090932 -17.525407 -9.143370 -0.176120 -54.636005 14.960904 10.458360 -3.346798 -18.662790 7.438482 0.000000 0.000000 0.000000 -2.457400 1.713750 9.878275 25.735350 2.165386 1.225824 44.386230 -22.889231 5.360647 -5.647222 27.557242 -4.520952 0.000000 0.000000 0.000000 
-15.894581 35.079521 105.916313 179.274256 14.629084 -178.337619 -2.594757 -3.567325 13.584033 -11.152554 -3.202320 -28.032756 20.256417 9.317228 27.132464 -4.331253 0.613967 9.569867 0.000000 0.000000 0.000000 4.049086 -3.615994 10.159182 0.183946 8.819835 -26.753965 -6.487924 7.371822 23.243002 -0.285479 4.437505 9.001310 0.000000 0.000000 0.000000 1.910112 -0.895209 -0.430784 -0.835462 1.373261 -9.872185 0.174553 -2.511740 9.239514 0.101179 -0.049031 0.442864 -0.112816 -0.315086 13.363980 3.619332 -1.877383 17.189595 0.000000 0.000000 0.000000 1.328254 0.435123 9.722672 -17.304972 -9.037536 -0.280968 -54.044428 15.499139 11.264322 -3.633702 -19.758294 7.737058 0.000000 0.000000 0.000000 -2.356828 1.739224 9.525566 25.077975 2.081852 0.766087 44.591313 -22.763817 5.168327 -5.387978 26.962383 -4.515233 0.000000 0.000000 0.000000 
-15.892869 35.076694 106.086914 179.189808 14.900695 -178.422901 -2.660025 -3.697609 13.807818 -10.683527 -3.689780 -28.697559 19.808023 9.456805 27.425139 -3.819112 0.615037 9.745955 0.000000 0.000000 0.000000 4.298495 -3.639107 10.151807 -0.220173 8.876528 -27.181750 -6.246471 7.323326 23.540244 -0.321408 4.458953 8.820820 0.000000 0.000000 0.000000 1.810216 -1.155648 0.284930 -0.754888 1.561019 -9.112920 0.273025 -2.304310 8.856587 0.077824 0.018008 0.476520 0.140320 -0.508649 12.888781 3.872029 -1.871007 16.074760 0.000000 0.000000 0.000000 1.395646 0.473735 9.342249 -17.144193 -8.803050 -0.359041 -53.532861 15.818571 11.651562 -3.325225 -20.848821 7.563963 0.000000 0.000000 0.000000 -2.283398 1.567451 8.887500 24.265258 1.813342 0.454162 45.040419 -22.321116 4.333192 -5.002729 26.632217 -4.420404 0.000000 0.000000 0.000000 
-15.926444 35.080666 106.414268 179.433236 14.894375 -178.506844 -2.333110 -4.070541 14.099414 -10.144192 -4.054364 -29.595049 19.157388 9.536152 27.703215 -3.393970 0.623369 10.105392 0.000000 0.000000 0.000000 4.873184 -3.867625 10.123160 -0.752484 9.011919 -27.861421 -5.885880 7.320499 23.765817 -0.545650 4.452088 8.789503 0.000000 0.000000 0.000000 2.017884 -1.221706 1.282737 -0.469446 1.662086 -8.152488 0.394498 -2.453107 8.578530 0.068380 -0.038378 0.348289 0.135879 -0.415939 12.345790 4.216691 -1.999587 14.887616 0.000000 0.000000 0.000000 1.470070 0.437827 8.901302 -16.681475 -8.638436 -0.408180 -53.368841 15.958915 12.074995 -3.562604 -21.686057 7.906145 0.000000 0.000000 0.000000 -2.199668 1.624627 8.394414 23.604750 1.800221 0.167138 45.555538 -21.489338 3.037912 -4.771589 26.267188 -4.574069 0.000000 0.000000 0.000000 
-15.976683 35.102169 106.949272 179.498355 14.904800 -178.661875 -2.188542 -4.595318 14.328548 -9.394200 -4.278882 -30.695744 18.474444 9.635416 27.909712 -3.135874 0.537896 10.641724 0.000000 0.000000 0.000000 5.499028 -4.166627 10.058773 -1.530867 9.105754 -28.833586 -5.445573 7.296883 23.965326 -0.725052 4.604539 8.919616 0.000000 0.000000 0.000000 2.226994 -1.556755 2.761691 -0.208894 1.956053 -6.966935 0.434941 -2.393744 8.078105 0.012556 -0.012757 0.432964 0.228812 -0.525899 11.687944 4.507231 -1.997361 13.125160 0.000000 0.000000 0.000000 1.523619 0.463908 8.409051 -16.299796 -8.596653 -0.371308 -53.515878 15.389724 12.395047 -3.439012 -22.105217 7.881856 0.000000 0.000000 0.000000 -2.154534 1.616099 7.857573 22.962645 1.946879 0.035238 46.235589 -20.128257 1.844364 -4.408256 26.317508 -4.622328 0.000000 0.000000 0.000000 
